# xmcd
#
# Track frame offsets: 
#        150
#        16062
#        68494
#        76956
#        99993
#        110611
#        120478
#        124257
#        149277
#        183539
#        206806
#        235608
#        260284
#        288392
#
# Disc length: 4156 seconds
#
# Revision: 0
# Processed by: cddbd v1.5.2PL0 Copyright (c) Steve Scherf et al.
# Submitted via: ExactAudioCopyFreeDBPlugin 1.0
#
DISCID=bc103a0e
DTITLE=Tin Machine - His Master's Voice: New York And Paris Broadcasts
DTITLE=1989 And 1991 [CD2]
DYEAR=1991
DGENRE=Rock
TTITLE0=If There Is Something [Academy Of Music, New York, November 29
TTITLE0=, 1991, WNEW-FM]
TTITLE1=Heaven's In Here [Academy Of Music, New York, November 29, 199
TTITLE1=1, WNEW-FM]
TTITLE2=Encore Break [Academy Of Music, New York, November 29, 1991, W
TTITLE2=NEW-FM]
TTITLE3=Sorry [Academy Of Music, New York, November 29, 1991, WNEW-FM]
TTITLE4=Sacrifice Yourself [Academy Of Music, New York, November 29, 1
TTITLE4=991, WNEW-FM]
TTITLE5=Radio Introduction [La Cigalle, Paris, France, June 25, 1989, 
TTITLE5=Westwood One FM]
TTITLE6=Interview [La Cigalle, Paris, France, June 25, 1989, Westwood 
TTITLE6=One FM]
TTITLE7=Amazing [La Cigalle, Paris, France, June 25, 1989, Westwood On
TTITLE7=e FM]
TTITLE8=Heaven's In Here [La Cigalle, Paris, France, June 25, 1989, We
TTITLE8=stwood One FM]
TTITLE9=Working Class Hero [La Cigalle, Paris, France, June 25, 1989, 
TTITLE9=Westwood One FM]
TTITLE10=Baby Can Dance [La Cigalle, Paris, France, June 25, 1989, Wes
TTITLE10=twood One FM]
TTITLE11=Maggie's Farm [La Cigalle, Paris, France, June 25, 1989, West
TTITLE11=wood One FM]
TTITLE12=I Can't Read [La Cigalle, Paris, France, June 25, 1989, Westw
TTITLE12=ood One FM]
TTITLE13=Under The God [La Cigalle, Paris, France, June 25, 1989, West
TTITLE13=wood One FM]
EXTD=
EXTT0=
EXTT1=
EXTT2=
EXTT3=
EXTT4=
EXTT5=
EXTT6=
EXTT7=
EXTT8=
EXTT9=
EXTT10=
EXTT11=
EXTT12=
EXTT13=
PLAYORDER=
